<svg id="Layer_1" enable-background="new 0 0 510 510" height="512" viewBox="0 0 510 510" width="512" xmlns="http://www.w3.org/2000/svg"><g id="XMLID_71_"><path id="XMLID_1323_" d="m194 30c-24.261 0-44 19.737-44 44v16l15 15 15-15c0-5.596 0-10.404 0-16 0-7.72 6.28-14 14-14h61l15-15-15-15c-21.34 0-39.66 0-61 0z" fill="#4e6ba6"/><path id="XMLID_256_" d="m330 74v16l15 15 15-15c0-5.596 0-10.404 0-16 0-24.261-19.737-44-44-44-21.34 0-39.66 0-61 0v30h61c3.859 0 7.359 1.57 9.895 4.105 2.535 2.535 4.105 6.035 4.105 9.895z" fill="#28487a"/><path id="XMLID_1347_" d="m30 240v189.5c0 27.845 22.653 50.5 50.5 50.5h39.5l135-120 15-60-15-60-112.5-15z" fill="#ecbd2c"/><path id="XMLID_1346_" d="m480 429.5c0-10.522 0-178.978 0-189.5l-112.5-15-112.5 15v120l135 120h39.5c27.845 0 50.5-22.653 50.5-50.5z" fill="#e58f22"/><path id="XMLID_1345_" d="m120 360v120h135l15-60-15-60c-16.333 0-118.559 0-135 0z" fill="#f9f9f9"/><path id="XMLID_1343_" d="m390 360h-60l-15 15-15-15h-45v120h135c0-14.518 0-105.386 0-120z" fill="#e2dff4"/><path id="XMLID_1341_" d="m300 420h30c0-7.259 0-52.693 0-60-10.492 0-19.508 0-30 0z" fill="#c21456"/><path id="XMLID_1340_" d="m50.5 90c-27.845 0-50.5 22.653-50.5 50.5v99.5h255l15-75-15-75c-11.364 0-193.136 0-204.5 0z" fill="#f4d844"/><path id="XMLID_1338_" d="m510 140.5c0-27.845-22.653-50.5-50.5-50.5-11.363 0-193.137 0-204.5 0v150h255c0-27.056 0-83.708 0-99.5z" fill="#ecbd2c"/><path id="XMLID_289_" d="m150 300c-16.568 0-30-13.432-30-30v-75h60v75c0 16.568-13.432 30-30 30z" fill="#4e6ba6"/><path id="XMLID_1324_" d="m330 270c0 16.568 13.431 30 30 30 16.568 0 30-13.431 30-30 0-20.194 0-63.236 0-75-7.259 0-52.693 0-60 0z" fill="#28487a"/></g></svg>