<svg width="179" height="179" viewBox="0 0 179 179" fill="none" xmlns="http://www.w3.org/2000/svg">
<path d="M150.214 77.0948C150.214 77.078 150.216 77.0612 150.216 77.0441C150.216 66.7303 123.033 0 89.5 0C55.9672 0 28.7837 66.7303 28.7837 77.0441C28.7837 77.0609 28.7858 77.0777 28.7858 77.0948C28.7858 77.1105 28.7837 77.1266 28.7837 77.1424C28.7837 86.75 69.7219 137.257 89.5 137.257C108.853 137.257 150.216 86.75 150.216 77.1424C150.216 77.1259 150.214 77.1095 150.214 77.0934C150.214 77.0938 150.214 77.0941 150.214 77.0948Z" fill="#135370"/>
<path d="M130.068 75.7292H123.173V55.7309H130.068C133.622 55.7309 136.503 58.6117 136.503 62.1651V69.295C136.503 72.8488 133.622 75.7292 130.068 75.7292Z" fill="#F4C892"/>
<path d="M48.9318 75.7292H55.8275V55.7309H48.9318C45.3783 55.7309 42.4976 58.6117 42.4976 62.1651V69.295C42.4976 72.8488 45.378 75.7292 48.9318 75.7292Z" fill="#F4C892"/>
<path d="M112.989 111.342L108.639 110.467C105.553 109.847 103.332 107.136 103.332 103.988V97.7207H74.88V104.146C74.88 107.294 72.6596 110.006 69.5729 110.626L66.0107 111.342V135.266H112.988V111.342H112.989Z" fill="#FED9A8"/>
<path d="M89.5 102.438C68.959 102.438 52.3071 85.7861 52.3071 65.2452V54.7929C52.3071 34.2519 68.959 17.6 89.5 17.6C110.041 17.6 126.693 34.2519 126.693 54.7929V65.2452C126.693 85.7861 110.041 102.438 89.5 102.438Z" fill="#FED9A8"/>
<path d="M89.5 17.6C86.1434 17.6 82.8917 18.0472 79.7983 18.881C95.6342 23.1487 107.29 37.6085 107.29 54.7929V65.2452C107.29 82.4295 95.6342 96.889 79.7983 101.157C82.8917 101.991 86.1434 102.438 89.5 102.438C110.041 102.438 126.693 85.7861 126.693 65.2452V54.7929C126.693 34.2519 110.041 17.6 89.5 17.6Z" fill="#F4CE9F"/>
<path d="M89.5 55.8966C122.978 55.8966 150.125 67.4963 150.214 77.0948C150.214 77.078 150.216 77.0612 150.216 77.0441C150.216 66.7303 123.033 0 89.5 0C55.9672 0 28.7837 66.7303 28.7837 77.0441C28.7837 77.0609 28.7858 77.0777 28.7858 77.0948C28.8746 67.4963 56.0225 55.8966 89.5 55.8966Z" fill="#1E608B"/>
<path d="M89.4999 0C86.5475 0 83.6443 0.519519 80.8044 1.47011C102.46 8.71926 120.426 41.1609 128.397 61.5243C141.691 65.7633 150.164 71.7402 150.214 77.0948C150.214 77.078 150.216 77.0612 150.216 77.0441C150.216 66.7303 123.033 0 89.4999 0Z" fill="#135370"/>
<path d="M171.487 174.94C169.87 163.05 163.298 128.572 140.725 119.514L114.979 111.487H64.0212L38.2753 119.514C15.7024 128.572 9.13011 163.05 7.51317 174.94C7.22089 177.089 8.89657 179 11.0652 179H167.935C170.104 179 171.779 177.089 171.487 174.94Z" fill="#1E608B"/>
<path d="M171.487 174.94C169.87 163.05 163.298 128.572 140.725 119.514L114.979 111.487H95.155L120.901 119.514C148.313 130.513 152.129 179 152.129 179H167.935C170.104 179 171.779 177.089 171.487 174.94Z" fill="#135370"/>
<path d="M140.402 110.184H38.5982C35.2196 110.184 32.4807 112.923 32.4807 116.301V174.312H146.519V116.301C146.519 112.923 143.78 110.184 140.402 110.184Z" fill="#CFCFCF"/>
<path d="M140.402 110.184H120.999C124.377 110.184 127.116 112.923 127.116 116.301V174.312H146.52V116.301C146.519 112.923 143.78 110.184 140.402 110.184Z" fill="#C2C4C6"/>
<path d="M150.2 169.762H28.8005C26.4983 169.762 24.6321 171.628 24.6321 173.93V174.832C24.6321 177.134 26.4983 179 28.8005 179H150.2C152.502 179 154.368 177.134 154.368 174.832V173.93C154.368 171.628 152.502 169.762 150.2 169.762Z" fill="#9C9DA0"/>
<path d="M150.199 169.762H134.844V179H150.199C152.502 179 154.368 177.134 154.368 174.832V173.93C154.368 171.628 152.502 169.762 150.199 169.762Z" fill="#8D8F93"/>
<path d="M89.5001 150.966C94.2271 150.966 98.0592 147.133 98.0592 142.406C98.0592 137.679 94.2271 133.847 89.5001 133.847C84.773 133.847 80.9409 137.679 80.9409 142.406C80.9409 147.133 84.773 150.966 89.5001 150.966Z" fill="white"/>
<path d="M98.7649 65.7189C92.038 63.2251 87.019 63.2041 80.2349 65.7189C80.7194 66.7076 80.9614 67.2023 81.4459 68.191C81.5826 68.4703 81.7354 68.7399 81.8938 69.0059C87.6749 67.0236 91.3692 67.0285 97.1455 69.0251C97.7929 67.7029 98.117 67.0414 98.7649 65.7189Z" fill="#4D4D4D"/>
<path d="M126.693 65.2451V63.2999H113.909V66.0527C113.909 66.3639 113.926 66.6729 113.951 66.9816H126.652C126.678 66.4062 126.693 65.8276 126.693 65.2451Z" fill="#4D4D4D"/>
<path d="M52.3071 63.3003V65.2455C52.3071 65.8279 52.3253 66.4062 52.3519 66.982H65.0906V63.3003H52.3071Z" fill="#4D4D4D"/>
<path d="M78.8315 75.2705H65.0548C63.5372 75.2705 62.3069 74.0403 62.3069 72.5226V64.6798C62.3069 63.1622 63.5372 61.9319 65.0548 61.9319H82.2269C83.7446 61.9319 84.9749 63.1622 84.9749 64.6798V69.1272C84.9749 72.5202 82.2245 75.2705 78.8315 75.2705Z" fill="#4D4D4D"/>
<path d="M100.168 75.2705H113.945C115.463 75.2705 116.693 74.0403 116.693 72.5226V64.6798C116.693 63.1622 115.463 61.9319 113.945 61.9319H96.7728C95.2552 61.9319 94.0249 63.1622 94.0249 64.6798V69.1272C94.0249 72.5202 96.7753 75.2705 100.168 75.2705Z" fill="#4D4D4D"/>
<path d="M113.945 61.9315H97.2642V74.5406C98.1291 75.0055 99.1174 75.2705 100.168 75.2705H113.945C115.463 75.2705 116.693 74.0403 116.693 72.5226V64.6798C116.693 63.1622 115.463 61.9315 113.945 61.9315Z" fill="#353535"/>
<path d="M82.2271 61.9315H65.5371V75.2705H78.8317C82.2247 75.2705 84.975 72.5202 84.975 69.1272V64.6798C84.975 63.1622 83.7448 61.9315 82.2271 61.9315Z" fill="#353535"/>
</svg>
